<?xml version="1.0" standalone="no"?>
<!DOCTYPE svg PUBLIC "-//W3C//DTD SVG 20010904//EN"
 "http://www.w3.org/TR/2001/REC-SVG-20010904/DTD/svg10.dtd">
<svg version="1.0" xmlns="http://www.w3.org/2000/svg"
 width="1254.000000pt" height="1254.000000pt" viewBox="0 0 1254.000000 1254.000000"
 preserveAspectRatio="xMidYMid meet">

<g transform="translate(0.000000,1254.000000) scale(0.100000,-0.100000)"
fill="#000000" stroke="none">
<path d="M5588 8505 c-289 -40 -602 -171 -841 -352 -90 -68 -259 -235 -332
-328 -220 -281 -353 -628 -381 -996 l-5 -76 -92 -7 c-229 -16 -483 -111 -700
-263 -111 -77 -298 -267 -374 -378 -114 -170 -201 -373 -244 -573 -26 -125
-36 -363 -20 -497 32 -271 141 -547 302 -767 229 -310 589 -534 989 -615 78
-16 261 -17 2370 -20 2490 -4 2383 -6 2592 52 518 145 909 556 1036 1088 25
103 27 128 27 327 -1 184 -4 229 -22 315 -32 144 -57 215 -124 352 -156 320
-418 553 -744 663 l-80 28 -7 103 c-17 262 -103 485 -274 705 -117 151 -257
262 -449 355 -220 107 -460 146 -705 115 -73 -9 -135 -18 -140 -19 -4 -1 -45
45 -91 103 -302 382 -708 619 -1172 685 -125 18 -387 18 -519 0z m502 -126
c244 -34 475 -123 696 -270 144 -95 362 -313 449 -448 68 -104 46 -97 190 -66
103 22 286 30 387 16 337 -45 629 -228 811 -507 136 -209 196 -409 197 -655
l0 -96 102 -27 c387 -104 684 -402 816 -816 85 -269 81 -582 -11 -845 -140
-398 -452 -707 -847 -839 -222 -74 -24 -69 -2565 -67 -2182 2 -2285 3 -2390
21 -460 79 -852 371 -1054 785 -106 215 -140 356 -148 600 -9 279 25 442 141
680 76 156 158 270 275 385 248 242 550 377 887 397 63 3 118 11 123 17 4 6
11 72 14 146 10 215 49 386 133 582 298 697 1037 1112 1794 1007z"/>
<path d="M5302 7072 c-42 -22 -53 -41 -97 -179 l-36 -112 -47 -6 c-65 -9 -101
-24 -118 -51 -13 -18 -84 -296 -84 -325 0 -5 9 -18 20 -29 16 -16 33 -20 85
-20 l64 0 5 -32 c3 -18 15 -121 26 -228 11 -107 22 -205 25 -217 4 -15 -1 -23
-15 -28 -45 -14 -45 -20 21 -598 l64 -552 30 -30 30 -31 29 -264 c17 -161 34
-278 44 -299 8 -18 29 -42 46 -52 29 -18 61 -19 623 -19 l592 0 35 30 c19 17
39 45 45 63 5 18 22 151 38 296 26 248 29 264 49 272 12 4 25 12 28 18 4 6 27
187 52 403 24 216 53 465 63 552 20 169 17 200 -21 212 -15 4 -18 12 -14 32 3
15 15 127 27 250 l23 222 61 0 c68 0 105 18 105 53 0 12 -14 85 -31 162 -28
125 -34 143 -63 171 -26 24 -45 33 -89 38 l-56 7 -43 132 c-38 118 -47 134
-77 154 l-34 23 -686 0 c-639 0 -689 -1 -719 -18z m1414 -192 c18 -52 30 -98
28 -102 -6 -10 -1453 -8 -1459 2 -4 7 46 167 60 190 4 7 227 9 673 8 l667 -3
31 -95z m217 -230 c11 -12 47 -152 47 -183 0 -8 -1924 -10 -1932 -2 -3 3 4 47
16 97 16 70 26 93 41 99 11 4 424 7 917 6 783 -2 899 -4 911 -17z m-107 -317
c-2 -10 -14 -112 -26 -228 -12 -115 -23 -220 -26 -232 l-4 -23 -758 0 -758 0
-23 218 c-12 119 -25 232 -28 250 l-5 32 817 0 c773 0 816 -1 811 -17z m-12
-604 c5 -5 -54 -551 -94 -874 -6 -44 -10 -83 -10 -87 0 -5 -313 -8 -695 -8
l-695 0 -5 23 c-2 12 -18 146 -35 297 -16 151 -39 347 -50 435 -11 88 -20 175
-20 193 l0 32 799 -2 c440 -2 802 -6 805 -9z m-174 -1104 c0 -33 -50 -486 -55
-502 -5 -16 -1130 -19 -1140 -3 -3 5 -10 49 -16 97 -24 219 -40 351 -45 391
l-5 42 630 0 631 0 0 -25z"/>
<path d="M6056 5558 c-209 -31 -397 -277 -357 -470 25 -117 109 -182 237 -182
62 0 81 4 147 37 237 117 339 399 198 550 -51 56 -132 79 -225 65z m93 -107
c12 -7 9 -17 -13 -55 -31 -53 -64 -79 -163 -131 -66 -34 -128 -88 -160 -141
-21 -34 -15 49 8 111 23 61 103 156 153 182 70 37 147 51 175 34z m63 -234
c-34 -72 -107 -148 -172 -180 -49 -23 -150 -31 -157 -11 -2 6 11 33 30 59 26
39 52 59 120 96 105 57 131 77 171 132 l31 42 3 -38 c2 -26 -6 -57 -26 -100z"/>
</g>
</svg>
